<svg width="20" height="10" viewBox="0 0 20 10" fill="none" xmlns="http://www.w3.org/2000/svg">
<path d="M17 10C17.2833 10 17.521 9.904 17.713 9.712C17.905 9.52 18.0007 9.28266 18 9V7H19C19.2833 7 19.521 6.904 19.713 6.712C19.905 6.52 20.0007 6.28267 20 6V4C20 3.71667 19.904 3.479 19.712 3.287C19.52 3.095 19.2827 2.99934 19 3H18V1C18 0.71667 17.904 0.479003 17.712 0.287003C17.52 0.0950036 17.2827 -0.000663206 17 3.4602e-06H1.00002C0.716684 3.4602e-06 0.479017 0.0960035 0.287018 0.288003C0.0950184 0.480003 -0.000648499 0.717336 1.71661e-05 1V9C1.71661e-05 9.28333 0.0960178 9.521 0.288017 9.713C0.480017 9.905 0.71735 10.0007 1.00002 10H17Z" fill="#ADACA7"/>
<rect width="16" height="7.99999" transform="matrix(-1 0 0 1 17 1.00003)" fill="white"/>
</svg>
