<svg width="18" height="18" viewBox="0 0 18 18" fill="none" xmlns="http://www.w3.org/2000/svg">
<path d="M9 0C4.02938 0 0 4.02938 0 9C0 13.9706 4.02938 18 9 18C13.9706 18 18 13.9706 18 9C18 4.02938 13.9706 0 9 0ZM9.77714 13.8796V15.1472H8.56468V13.8938C6.57507 13.6214 5.7038 11.9866 5.7038 11.9866L6.94227 10.9506C6.94227 10.9506 7.73304 12.3272 9.16348 12.3272C9.95363 12.3272 10.553 11.9042 10.553 11.1816C10.553 9.49229 6.00165 9.69726 6.00165 6.5633C6.00165 5.20098 7.07912 4.21949 8.56406 3.98727V2.72093H9.77652V3.98727C10.8119 4.1235 12.038 4.66843 12.038 5.84065V6.73978H10.4304V6.30384C10.4304 5.85427 9.85764 5.55456 9.21673 5.55456C8.39934 5.55456 7.80054 5.96326 7.80054 6.53543C7.80054 8.26558 12.3519 7.84326 12.3519 11.1271C12.3519 12.477 11.3438 13.6474 9.77714 13.8796Z" fill="#ADACA7"/>
</svg>
