<svg width="147" height="51" viewBox="0 0 147 51" fill="none" xmlns="http://www.w3.org/2000/svg">
<path d="M60.0506 15.2333C62.358 15.2333 64.2895 15.4537 65.8451 15.8944C67.4265 16.3352 68.6062 17.0611 69.3839 18.0722C70.1876 19.0833 70.5895 20.4315 70.5895 22.1167C70.5895 23.2056 70.3821 24.1778 69.9673 25.0333C69.5784 25.863 68.9821 26.563 68.1784 27.1333C67.4006 27.6778 66.4414 28.0537 65.3006 28.2611V28.4556C66.4673 28.637 67.5173 28.9741 68.4506 29.4667C69.4099 29.9593 70.1617 30.6593 70.7062 31.5667C71.2506 32.4741 71.5228 33.6537 71.5228 35.1056C71.5228 36.7907 71.1339 38.2296 70.3562 39.4222C69.5784 40.5889 68.4636 41.4833 67.0117 42.1056C65.5858 42.7019 63.8747 43 61.8784 43H52.1173V15.2333H60.0506ZM60.7506 27.0556C63.1358 27.0556 64.7691 26.6796 65.6506 25.9278C66.5321 25.15 66.9728 24.0093 66.9728 22.5056C66.9728 20.9759 66.4284 19.887 65.3395 19.2389C64.2765 18.5648 62.5654 18.2278 60.2062 18.2278H55.6173V27.0556H60.7506ZM55.6173 29.9722V40.0444H61.2173C63.6802 40.0444 65.3914 39.5648 66.3506 38.6056C67.3099 37.6463 67.7895 36.3889 67.7895 34.8333C67.7895 33.8481 67.5691 32.9926 67.1284 32.2667C66.7136 31.5407 66.0006 30.9833 64.9895 30.5944C64.0043 30.1796 62.6562 29.9722 60.9451 29.9722H55.6173ZM92.888 43L89.5436 34.4056H78.538L75.2325 43H71.6936L82.5436 15.1167H85.6936L96.5047 43H92.888ZM85.3825 22.8944C85.3047 22.687 85.1751 22.3111 84.9936 21.7667C84.8121 21.2222 84.6306 20.6648 84.4491 20.0944C84.2936 19.4981 84.164 19.0444 84.0602 18.7333C83.9306 19.2519 83.788 19.7833 83.6325 20.3278C83.5028 20.8463 83.3602 21.3259 83.2047 21.7667C83.0751 22.2074 82.9584 22.5833 82.8547 22.8944L79.7047 31.2944H88.4936L85.3825 22.8944ZM120.37 43H116.286L101.431 19.9389H101.275C101.301 20.4056 101.327 20.9241 101.353 21.4944C101.405 22.0648 101.444 22.687 101.47 23.3611C101.496 24.0093 101.522 24.6833 101.547 25.3833C101.573 26.0833 101.586 26.7833 101.586 27.4833V43H98.3586V15.2333H102.403L117.22 38.2167H117.375C117.349 37.9056 117.323 37.4778 117.297 36.9333C117.272 36.363 117.246 35.7407 117.22 35.0667C117.194 34.3667 117.168 33.6537 117.142 32.9278C117.116 32.2019 117.103 31.5278 117.103 30.9056V15.2333H120.37V43ZM146.261 43H142.138L132.299 29.7389L129.461 32.2278V43H125.961V15.2333H129.461V28.9222C130.238 28.0407 131.029 27.1593 131.833 26.2778C132.637 25.3963 133.44 24.5148 134.244 23.6333L141.749 15.2333H145.833L134.827 27.3278L146.261 43Z" fill="url(#paint0_linear_88_11)"/>
<circle cx="21.5" cy="29.5" r="21.5" fill="url(#paint1_radial_88_11)"/>
<path d="M38.6122 44.0918L8.19043 13.6313" stroke="url(#paint2_linear_88_11)" stroke-width="2.77778"/>
<path d="M4.38781 43.838L34.8096 13.3775" stroke="url(#paint3_linear_88_11)" stroke-width="2.77778"/>
<defs>
<linearGradient id="paint0_linear_88_11" x1="147" y1="26" x2="48" y2="26" gradientUnits="userSpaceOnUse">
<stop offset="1" stop-color="#ADACA7"/>
</linearGradient>
<radialGradient id="paint1_radial_88_11" cx="0" cy="0" r="1" gradientUnits="userSpaceOnUse" gradientTransform="translate(21.5 29.5) rotate(90) scale(21.5)">
<stop offset="0.96875"/>
<stop offset="1" stop-opacity="0"/>
<stop offset="1" stop-opacity="0"/>
</radialGradient>
<linearGradient id="paint2_linear_88_11" x1="23.4013" y1="13.6313" x2="23.4013" y2="44.0918" gradientUnits="userSpaceOnUse">
<stop stop-opacity="0.4"/>
<stop offset="0.458333" stop-color="#ADACA7"/>
<stop offset="1" stop-opacity="0"/>
</linearGradient>
<linearGradient id="paint3_linear_88_11" x1="19.5987" y1="13.3775" x2="19.5987" y2="43.838" gradientUnits="userSpaceOnUse">
<stop stop-opacity="0.4"/>
<stop offset="0.458333" stop-color="#ADACA7"/>
<stop offset="1" stop-opacity="0"/>
</linearGradient>
</defs>
</svg>
