<svg width="146" height="58" viewBox="0 0 146 58" fill="none" xmlns="http://www.w3.org/2000/svg">
<circle cx="25.5" cy="32.5" r="25.5" fill="url(#paint0_radial_113_21)"/>
<path d="M45.7959 49.8066L9.71423 13.679" stroke="url(#paint1_linear_113_21)" stroke-width="2.77778"/>
<path d="M5.20414 49.5055L41.2858 13.378" stroke="url(#paint2_linear_113_21)" stroke-width="2.77778"/>
<path d="M59.0506 16.2333C61.358 16.2333 63.2895 16.4537 64.8451 16.8944C66.4265 17.3352 67.6062 18.0611 68.3839 19.0722C69.1876 20.0833 69.5895 21.4315 69.5895 23.1167C69.5895 24.2056 69.3821 25.1778 68.9673 26.0333C68.5784 26.863 67.9821 27.563 67.1784 28.1333C66.4006 28.6778 65.4414 29.0537 64.3006 29.2611V29.4556C65.4673 29.637 66.5173 29.9741 67.4506 30.4667C68.4099 30.9593 69.1617 31.6593 69.7062 32.5667C70.2506 33.4741 70.5228 34.6537 70.5228 36.1056C70.5228 37.7907 70.1339 39.2296 69.3562 40.4222C68.5784 41.5889 67.4636 42.4833 66.0117 43.1056C64.5858 43.7019 62.8747 44 60.8784 44H51.1173V16.2333H59.0506ZM59.7506 28.0556C62.1358 28.0556 63.7691 27.6796 64.6506 26.9278C65.5321 26.15 65.9728 25.0093 65.9728 23.5056C65.9728 21.9759 65.4284 20.887 64.3395 20.2389C63.2765 19.5648 61.5654 19.2278 59.2062 19.2278H54.6173V28.0556H59.7506ZM54.6173 30.9722V41.0444H60.2173C62.6802 41.0444 64.3914 40.5648 65.3506 39.6056C66.3099 38.6463 66.7895 37.3889 66.7895 35.8333C66.7895 34.8481 66.5691 33.9926 66.1284 33.2667C65.7136 32.5407 65.0006 31.9833 63.9895 31.5944C63.0043 31.1796 61.6562 30.9722 59.9451 30.9722H54.6173ZM91.888 44L88.5436 35.4056H77.538L74.2325 44H70.6936L81.5436 16.1167H84.6936L95.5047 44H91.888ZM84.3825 23.8944C84.3047 23.687 84.1751 23.3111 83.9936 22.7667C83.8121 22.2222 83.6306 21.6648 83.4491 21.0944C83.2936 20.4981 83.164 20.0444 83.0602 19.7333C82.9306 20.2519 82.788 20.7833 82.6325 21.3278C82.5028 21.8463 82.3602 22.3259 82.2047 22.7667C82.0751 23.2074 81.9584 23.5833 81.8547 23.8944L78.7047 32.2944H87.4936L84.3825 23.8944ZM119.37 44H115.286L100.431 20.9389H100.275C100.301 21.4056 100.327 21.9241 100.353 22.4944C100.405 23.0648 100.444 23.687 100.47 24.3611C100.496 25.0093 100.522 25.6833 100.547 26.3833C100.573 27.0833 100.586 27.7833 100.586 28.4833V44H97.3586V16.2333H101.403L116.22 39.2167H116.375C116.349 38.9056 116.323 38.4778 116.297 37.9333C116.272 37.363 116.246 36.7407 116.22 36.0667C116.194 35.3667 116.168 34.6537 116.142 33.9278C116.116 33.2019 116.103 32.5278 116.103 31.9056V16.2333H119.37V44ZM145.261 44H141.138L131.299 30.7389L128.461 33.2278V44H124.961V16.2333H128.461V29.9222C129.238 29.0407 130.029 28.1593 130.833 27.2778C131.637 26.3963 132.44 25.5148 133.244 24.6333L140.749 16.2333H144.833L133.827 28.3278L145.261 44Z" fill="url(#paint3_linear_113_21)"/>
<defs>
<radialGradient id="paint0_radial_113_21" cx="0" cy="0" r="1" gradientUnits="userSpaceOnUse" gradientTransform="translate(25.5 32.5) rotate(90) scale(25.5)">
<stop offset="0.96875"/>
<stop offset="1" stop-opacity="0"/>
<stop offset="1" stop-opacity="0"/>
</radialGradient>
<linearGradient id="paint1_linear_113_21" x1="27.755" y1="13.679" x2="27.755" y2="49.8066" gradientUnits="userSpaceOnUse">
<stop stop-opacity="0.4"/>
<stop offset="0.458333" stop-color="#FF5200"/>
<stop offset="1" stop-opacity="0"/>
</linearGradient>
<linearGradient id="paint2_linear_113_21" x1="23.245" y1="13.378" x2="23.245" y2="49.5055" gradientUnits="userSpaceOnUse">
<stop stop-opacity="0.4"/>
<stop offset="0.458333" stop-color="#FF5200"/>
<stop offset="1" stop-opacity="0"/>
</linearGradient>
<linearGradient id="paint3_linear_113_21" x1="146" y1="27" x2="47" y2="27" gradientUnits="userSpaceOnUse">
<stop offset="0.119792" stop-color="#ADACA7"/>
<stop offset="0.494792" stop-color="#ADACA7"/>
</linearGradient>
</defs>
</svg>
