<svg width="20" height="18" viewBox="0 0 20 18" fill="none" xmlns="http://www.w3.org/2000/svg">
<mask id="mask0_71_142" style="mask-type:alpha" maskUnits="userSpaceOnUse" x="0" y="0" width="20" height="18">
<rect width="20" height="17.7778" fill="#D9D9D9"/>
</mask>
<g mask="url(#mask0_71_142)">
<path d="M-4.05312e-05 -4.76837e-07H2.91663V17.7778H-4.05312e-05V-4.76837e-07ZM4.37496 -4.76837e-07H5.83329V17.7778H4.37496V-4.76837e-07ZM7.29163 -4.76837e-07H11.6666V17.7778H7.29163V-4.76837e-07ZM13.125 -4.76837e-07H14.5833V17.7778H13.125V-4.76837e-07ZM17.5 -4.76837e-07H20.4166V17.7778H17.5V-4.76837e-07ZM21.875 -4.76837e-07H23.3333V17.7778H21.875V-4.76837e-07ZM-2.91671 -2.96296V2.96296H-5.83337V-2.96296C-5.83337 -3.74879 -5.52608 -4.50243 -4.9791 -5.05809C-4.43212 -5.61376 -3.69026 -5.92593 -2.91671 -5.92593H2.91663V-2.96296H-2.91671ZM26.25 -5.92593C27.0235 -5.92593 27.7654 -5.61376 28.3124 -5.05809C28.8593 -4.50243 29.1666 -3.74879 29.1666 -2.96296V2.96296H26.25V-2.96296H20.4166V-5.92593H26.25ZM-2.91671 14.8148V20.7407H2.91663V23.7037H-2.91671C-3.69026 23.7037 -4.43212 23.3915 -4.9791 22.8359C-5.52608 22.2802 -5.83337 21.5266 -5.83337 20.7407V14.8148H-2.91671ZM26.25 20.7407V14.8148H29.1666V20.7407C29.1666 21.5266 28.8593 22.2802 28.3124 22.8359C27.7654 23.3915 27.0235 23.7037 26.25 23.7037H20.4166V20.7407H26.25Z" fill="#FF5200"/>
</g>
</svg>
