<svg width="20" height="20" viewBox="0 0 20 20" fill="none" xmlns="http://www.w3.org/2000/svg">
<path d="M13.2669 14.5212L10.4084 11.5104C10.3039 11.4004 10.1805 11.3804 10.114 11.3804C10.0475 11.3804 9.92404 11.4004 9.81958 11.5104L6.95158 14.5312C6.62869 14.8713 6.12537 15.4214 4.44446 15.4214L7.96772 19.1224C8.50191 19.6844 9.22603 20 9.98102 20C10.736 20 11.4601 19.6844 11.9943 19.1224L15.5271 15.4114C14.6629 15.4114 13.9411 15.2314 13.2669 14.5212ZM6.95158 5.4688L9.81958 8.4896C9.89555 8.56962 10.0095 8.61964 10.114 8.61964C10.2184 8.61964 10.3324 8.56962 10.4084 8.4896L13.2479 5.49881C13.9221 4.75862 14.6914 4.58857 15.5556 4.58857L12.0228 0.877592C11.4886 0.315642 10.7645 0 10.0095 0C9.25452 0 8.5304 0.315642 7.99621 0.877592L4.47295 4.57857C6.14436 4.57857 6.65718 5.15872 6.95158 5.4688Z" fill="#FF5200"/>
<path d="M19.1051 7.84815L16.8554 5.57565H15.5955C15.0556 5.57565 14.5156 5.79687 14.1457 6.18903L11.146 9.20562C10.8661 9.48717 10.4961 9.62794 10.1262 9.62794C9.74519 9.62255 9.38055 9.47155 9.10627 9.20562L6.08663 6.15886C5.70668 5.77676 5.18674 5.55554 4.63681 5.55554H3.16698L0.877256 7.86826C0.315521 8.43387 0 9.20059 0 9.99999C0 10.7994 0.315521 11.5661 0.877256 12.1317L3.16698 14.4444H4.64681C5.18674 14.4444 5.70668 14.2232 6.09663 13.8411L9.11627 10.8044C9.39624 10.5229 9.7662 10.3821 10.1362 10.3821C10.5061 10.3821 10.8761 10.5229 11.156 10.8044L14.1657 13.8311C14.5456 14.2132 15.0656 14.4344 15.6155 14.4344H16.8753L19.1251 12.1619C19.6892 11.5861 20.0037 10.8092 20 10.0009C19.9962 9.19257 19.6745 8.41863 19.1051 7.84815Z" fill="#FF5200"/>
</svg>
