<svg width="20" height="20" viewBox="0 0 20 20" fill="none" xmlns="http://www.w3.org/2000/svg">
<path d="M10 4.04725e-09C11.7249 -5.69771e-05 13.3826 0.601566 14.625 1.67847C15.8673 2.75537 16.5975 4.22371 16.6622 5.775L16.6667 6H17.7778C18.3384 5.99984 18.8784 6.19041 19.2895 6.5335C19.7006 6.87659 19.9524 7.34685 19.9944 7.85L20 8V18C20.0002 18.5046 19.7884 18.9906 19.4072 19.3605C19.026 19.7305 18.5035 19.9572 17.9444 19.995L17.7778 20H2.22222C1.66158 20.0002 1.12159 19.8096 0.710502 19.4665C0.299412 19.1234 0.0476038 18.6532 0.00555579 18.15L1.11409e-07 18V8C-0.00017731 7.49542 0.211563 7.00943 0.592774 6.63945C0.973986 6.26947 1.49649 6.04284 2.05556 6.005L2.22222 6H3.33333C3.33333 4.4087 4.03571 2.88258 5.28596 1.75736C6.5362 0.632141 8.23189 4.04725e-09 10 4.04725e-09ZM17.7778 8H2.22222V18H17.7778V8ZM10 10C10.474 10.0001 10.9355 10.1367 11.3172 10.3896C11.6988 10.6426 11.9806 10.9988 12.1213 11.4062C12.262 11.8135 12.2544 12.2507 12.0994 12.6538C11.9445 13.057 11.6503 13.405 11.26 13.647L11.1111 13.732V15C11.1108 15.2549 11.0024 15.5 10.8079 15.6854C10.6135 15.8707 10.3478 15.9822 10.0651 15.9972C9.7824 16.0121 9.50402 15.9293 9.28685 15.7657C9.06968 15.6021 8.93012 15.3701 8.89667 15.117L8.88889 15V13.732C8.46527 13.5119 8.13419 13.1721 7.94701 12.7653C7.75983 12.3586 7.72699 11.9076 7.8536 11.4824C7.98021 11.0571 8.25918 10.6813 8.64726 10.4133C9.03534 10.1453 9.51083 10 10 10ZM10 2C8.82126 2 7.6908 2.42143 6.8573 3.17157C6.02381 3.92172 5.55556 4.93913 5.55556 6H14.4444C14.4444 4.93913 13.9762 3.92172 13.1427 3.17157C12.3092 2.42143 11.1787 2 10 2Z" fill="#FF5200"/>
</svg>
