<svg width="60" height="55" viewBox="0 0 60 55" fill="none" xmlns="http://www.w3.org/2000/svg">
<mask id="mask0_93_13" style="mask-type:alpha" maskUnits="userSpaceOnUse" x="0" y="0" width="54" height="54">
<circle cx="27" cy="27" r="27" fill="#D9D9D9"/>
</mask>
<g mask="url(#mask0_93_13)">
<circle cx="27" cy="27" r="27" fill="#04536C"/>
<path d="M26.3571 30.2143C23.0866 30.2143 20.2868 29.0498 17.9578 26.7207C15.6288 24.3917 14.4643 21.592 14.4643 18.3214C14.4643 15.0509 15.6288 12.2511 17.9578 9.92209C20.2868 7.59307 23.0866 6.42856 26.3571 6.42856C29.6277 6.42856 32.4274 7.59307 34.7565 9.92209C37.0855 12.2511 38.25 15.0509 38.25 18.3214C38.25 21.592 37.0855 24.3917 34.7565 26.7207C32.4274 29.0498 29.6277 30.2143 26.3571 30.2143ZM2.57141 54V45.675C2.57141 43.9902 3.0055 42.4411 3.87368 41.0279C4.74186 39.6146 5.89348 38.5373 7.32855 37.796C10.4009 36.2598 13.5227 35.1072 16.6942 34.3381C19.8656 33.5691 23.0866 33.1855 26.3571 33.1875C29.6277 33.1875 32.8486 33.572 36.0201 34.3411C39.1915 35.1102 42.3134 36.2618 45.3857 37.796C46.8227 38.5393 47.9754 39.6176 48.8435 41.0308C49.7117 42.4441 50.1448 43.9922 50.1428 45.675V54H2.57141Z" fill="black"/>
<circle cx="27" cy="27" r="26.25" stroke="#ADACA7" stroke-width="1.5"/>
</g>
<path d="M53.4697 54.5303C53.7626 54.8232 54.2374 54.8232 54.5303 54.5303L59.3033 49.7574C59.5962 49.4645 59.5962 48.9896 59.3033 48.6967C59.0104 48.4038 58.5355 48.4038 58.2426 48.6967L54 52.9393L49.7574 48.6967C49.4645 48.4038 48.9896 48.4038 48.6967 48.6967C48.4038 48.9896 48.4038 49.4645 48.6967 49.7574L53.4697 54.5303ZM53.25 52.5V54H54.75V52.5H53.25Z" fill="#ADACA7"/>
</svg>
