<svg width="20" height="10" viewBox="0 0 20 10" fill="none" xmlns="http://www.w3.org/2000/svg">
<path d="M7.64857 0H4.28571C3.14907 1.97602e-08 2.05898 0.526784 1.25526 1.46447C0.451529 2.40215 0 3.67392 0 5C0 6.32608 0.451529 7.59785 1.25526 8.53553C2.05898 9.47322 3.14907 10 4.28571 10H8.57143C9.25725 10.0004 9.93314 9.80881 10.5423 9.44127C11.1515 9.07373 11.6762 8.541 12.0723 7.88782C12.4684 7.23464 12.7244 6.4801 12.8187 5.68758C12.913 4.89505 12.8429 4.0877 12.6143 3.33333H11.4286C11.3057 3.33333 11.1857 3.35 11.0714 3.385C11.3124 3.89251 11.4356 4.46459 11.4289 5.04469C11.4222 5.62479 11.2859 6.19281 11.0334 6.6926C10.7809 7.19239 10.421 7.60664 9.98918 7.8944C9.55739 8.18216 9.0687 8.33345 8.57143 8.33333H4.28571C3.52795 8.33333 2.80123 7.98214 2.26541 7.35702C1.72959 6.7319 1.42857 5.88405 1.42857 5C1.42857 4.11594 1.72959 3.2681 2.26541 2.64298C2.80123 2.01786 3.52795 1.66667 4.28571 1.66667H6.47857C6.79 1.04 7.18428 0.476667 7.64857 0Z" fill="#FF5200"/>
<path d="M11.4286 6.87469e-07C10.7428 -0.00041885 10.0669 0.191189 9.45769 0.558727C8.84851 0.926266 8.32382 1.459 7.92772 2.11218C7.53161 2.76536 7.27565 3.5199 7.18134 4.31242C7.08703 5.10495 7.15712 5.9123 7.38573 6.66667H8.9543C8.70354 6.15994 8.57152 5.58514 8.57152 5.00002C8.57151 4.41491 8.70353 3.8401 8.95428 3.33337C9.20504 2.82664 9.56571 2.40585 10 2.11328C10.4344 1.82071 10.9271 1.66668 11.4286 1.66667H15.7143C16.4721 1.66667 17.1988 2.01786 17.7346 2.64298C18.2704 3.2681 18.5714 4.11595 18.5714 5C18.5714 5.88405 18.2704 6.7319 17.7346 7.35702C17.1988 7.98214 16.4721 8.33333 15.7143 8.33333H13.5214C13.2106 8.959 12.815 9.52184 12.35 10H15.7143C16.2771 10 16.8344 9.87067 17.3544 9.6194C17.8743 9.36812 18.3468 8.99983 18.7448 8.53553C19.1427 8.07124 19.4584 7.52004 19.6738 6.91342C19.8892 6.30679 20 5.65661 20 5C20 4.34339 19.8892 3.69321 19.6738 3.08658C19.4584 2.47995 19.1427 1.92876 18.7448 1.46447C18.3468 1.00017 17.8743 0.631877 17.3544 0.380603C16.8344 0.12933 16.2771 6.77685e-07 15.7143 6.87469e-07H11.4286Z" fill="#FF5200"/>
</svg>
