<svg width="13" height="9" viewBox="0 0 13 9" fill="none" xmlns="http://www.w3.org/2000/svg">
<path d="M6.5 9C6.12083 9 5.80035 8.87206 5.53854 8.61618C5.27674 8.36029 5.14583 8.04706 5.14583 7.67647C5.14583 7.30588 5.27674 6.99265 5.53854 6.73677C5.80035 6.48088 6.12083 6.35294 6.5 6.35294C6.87917 6.35294 7.19965 6.48088 7.46146 6.73677C7.72326 6.99265 7.85417 7.30588 7.85417 7.67647C7.85417 8.04706 7.72326 8.36029 7.46146 8.61618C7.19965 8.87206 6.87917 9 6.5 9ZM3.43958 6.00882L2.30208 4.87059C2.83472 4.35 3.45999 3.93759 4.17788 3.63335C4.89576 3.32912 5.66981 3.17682 6.5 3.17647C7.33056 3.17647 8.10478 3.33088 8.82267 3.63971C9.54056 3.94853 10.1656 4.36765 10.6979 4.89706L9.56042 6.00882C9.16319 5.62059 8.70278 5.31618 8.17917 5.09559C7.65556 4.875 7.09583 4.76471 6.5 4.76471C5.90417 4.76471 5.34444 4.875 4.82083 5.09559C4.29722 5.31618 3.83681 5.62059 3.43958 6.00882ZM1.1375 3.75882L0 2.64706C0.830556 1.81765 1.80104 1.16912 2.91146 0.701471C4.02187 0.233823 5.21806 0 6.5 0C7.78194 0 8.97813 0.233823 10.0885 0.701471C11.199 1.16912 12.1694 1.81765 13 2.64706L11.8625 3.75882C11.1674 3.07941 10.3615 2.54771 9.44504 2.16371C8.52854 1.77971 7.54686 1.58788 6.5 1.58824C5.45278 1.58824 4.47092 1.78024 3.55442 2.16424C2.63792 2.54824 1.83228 3.07977 1.1375 3.75882Z" fill="white"/>
</svg>
